<svg width="480" height="480" xmlns="http://www.w3.org/2000/svg" xmlns:xlink="http://www.w3.org/1999/xlink" overflow="hidden"><defs><clipPath id="clip0"><rect x="0" y="0" width="480" height="480"/></clipPath></defs><g clip-path="url(#clip0)"><path d="M343.942 180C328.033 152.5 301.52 131.913 270 123.798L270 107.905C270 107.902 270.002 107.901 269.999 107.899 269.908 107.835 261.337 101.8 240.2 101.8 219.063 101.8 210.097 107.836 210.002 107.899 209.999 107.901 210.001 107.902 210.001 107.905L210.001 123.797C178.48 131.912 151.966 152.499 136.057 180L136.057 300C156.806 335.867 195.583 360 239.999 360 284.415 360 323.192 335.867 343.941 300L343.941 180Z" fill="#E4E4E4"/><path d="M240 290.6C337.2 290.6 356.219 270 356.219 270 358.023 262.991 359.202 255.733 359.71 248.29 359.71 248.29 356.067 244.466 356.067 240 356.067 235.534 359.71 231.71 359.71 231.71 359.202 224.267 358.023 217.009 356.219 210 356.219 210 340.2 197.6 240.2 197.6 140.2 197.6 123.781 210 123.781 210 121.977 217.009 120.799 224.267 120.291 231.71 120.291 231.71 124.334 234.333 124.334 240 124.334 245.667 120.291 248.29 120.291 248.29 120.799 255.733 121.978 262.991 123.781 270 123.781 270 142.8 290.6 240 290.6Z" fill="#FFC000"/><path d="M343.942 180 136.058 180C130.686 189.286 126.52 199.356 123.781 210L356.22 210C353.48 199.356 349.314 189.286 343.942 180Z" fill="#FFFFFF"/><path d="M125.781 270C126.494 272.771 126.748 274.201 126.625 276.712 126.583 277.566 126.285 278.425 126.324 278.542 128.871 286.057 132.145 293.236 136.057 300L343.942 300C345.511 297.287 346.977 294.507 348.334 291.665 348.694 290.912 349.05 290.156 349.395 289.394 351.008 285.827 352.451 282.167 353.715 278.425 353.752 278.316 353.483 277.916 353.4 276.916 353.171 274.163 353.514 272.738 354.219 269.999L125.781 269.999Z" fill="#FFFFFF"/><path d="M123.781 270C124.525 272.891 125.375 275.74 126.325 278.542L135.01 270.875 150.142 284 165.009 270.875 180.142 284 195.009 270.875 210.142 284 225.009 270.875 240.142 284 255.009 270.875 270.142 284 285.009 270.875 300.142 284 315.009 270.875 330.142 284 345.009 270.875 353.715 278.426C354.649 275.661 355.486 272.851 356.219 270L123.781 270Z" fill="#E4E4E4"/><path d="M131.998 289.999 135.998 285.999 139.998 289.999 135.998 293.999Z" fill="#E4E4E4"/><path d="M191.997 289.999 195.997 285.999 199.997 289.999 195.997 293.999Z" fill="#737373"/><path d="M251.997 289.999 255.997 285.999 259.997 289.999 255.997 293.999Z" fill="#E4E4E4"/><path d="M163.997 289.999 167.997 285.999 171.998 289.999 167.998 293.999Z" fill="#E4E4E4"/><path d="M311.996 290 315.996 286 319.996 290 315.996 294Z" fill="#737373"/><path d="M221.997 289.999 225.997 285.999 229.997 289.999 225.997 293.999Z" fill="#737373"/><path d="M281.997 290 285.997 286 289.997 290 285.997 294Z" fill="#E4E4E4"/><path d="M342 290 346 294 348.334 291.665C348.694 290.912 349.05 290.156 349.395 289.394L346 286 342 290Z" fill="#737373"/><path d="M145.998 239.999 149.998 235.999 153.998 239.999 149.998 243.999Z" fill="#737373"/><path d="M205.998 240 209.998 236 213.998 240 209.998 244Z" fill="#737373"/><path d="M265.997 240 269.997 236 273.997 240 269.997 244Z" fill="#737373"/><path d="M325.997 240.001 329.997 236.001 333.997 240.001 329.997 244.001Z" fill="#737373"/><path d="M308 240 308 232 300 232 292 232 292 240 292 248 300 248 308 248Z" fill="#737373"/><path d="M283.996 232 291.996 224 299.997 232 291.996 240Z" fill="#D0D0D0"/><path d="M299.996 232 307.996 224 315.996 232 307.996 240.001Z" fill="#D0D0D0"/><path d="M283.996 248.001 291.996 240 299.996 248.001 291.996 256.001Z" fill="#D0D0D0"/><path d="M299.996 248 307.996 240 315.996 248 307.996 256Z" fill="#D0D0D0"/><path d="M248 240 248 232 240 232 232 232 232 240 232 248 240 248 248 248Z" fill="#505050"/><path d="M223.997 232 231.997 224 239.997 232 231.997 240Z" fill="#FFFFFF"/><path d="M239.997 232 247.997 224 255.997 232 247.997 240.001Z" fill="#FFFFFF"/><path d="M223.997 248 231.997 239.999 239.997 248 231.997 256Z" fill="#FFFFFF"/><path d="M239.996 248 247.997 240 255.997 248 247.997 256Z" fill="#FFFFFF"/><path d="M188 240 188 232 180 232 172 232 172 240 172 248 180 248 188 248Z" fill="#737373"/><path d="M163.997 232 171.997 224 179.998 232 171.997 240Z" fill="#D0D0D0"/><path d="M179.997 231.999 187.997 223.999 195.997 231.999 187.997 240Z" fill="#D0D0D0"/><path d="M163.997 248 171.997 239.999 179.997 248 171.997 256Z" fill="#D0D0D0"/><path d="M179.996 248 187.997 240 195.997 248 187.997 256Z" fill="#D0D0D0"/><path d="M359.745 247.744C359.908 245.183 360 242.602 360 240 360 237.398 359.908 234.817 359.745 232.256 359.745 232.256 352 232.8 352 240 352 247.2 359.745 247.744 359.745 247.744Z" fill="#FFC000"/><path d="M344 232 352 240 359.745 232.256C359.733 232.074 359.723 231.892 359.71 231.71L352 224 344 232Z" fill="#FFFFFF"/><path d="M344 248 352 256 359.71 248.29C359.722 248.108 359.733 247.926 359.745 247.744L352 240 344 248Z" fill="#FFFFFF"/><path d="M120.255 232.256C120.092 234.817 120 237.397 120 240 120 242.603 120.092 245.183 120.255 247.744 120.255 247.744 128 247.5 128 240 128 232.5 120.255 232.256 120.255 232.256Z" fill="#FFC000"/><path d="M136 232 128 224 120.29 231.71C120.278 231.892 120.267 232.074 120.255 232.256L128 240 136 232Z" fill="#FFFFFF"/><path d="M136 248 128 240 120.255 247.744C120.267 247.926 120.277 248.108 120.29 248.29L128 256 136 248Z" fill="#FFFFFF"/><path d="M201.997 196 209.997 187.999 217.997 196 209.997 204Z" fill="#FFC000"/><path d="M141.998 196 149.998 187.999 157.998 196 149.998 204Z" fill="#FFC000"/><path d="M261.997 196.001 269.997 188.001 277.997 196.001 269.997 204.001Z" fill="#FFC000"/><path d="M321.996 196.001 329.996 188.001 337.996 196.001 329.996 204.001Z" fill="#FFC000"/><path d="M270.045 96 210 96 210 108C210.927 112.564 215.162 116 220 116 224.838 116 228.873 112.564 229.799 108L230.201 108C231.128 112.564 235.162 116 240 116 244.838 116 248.873 112.564 249.799 108L250.201 108C251.128 112.564 255.162 116 260 116 264.838 116 269.119 112.564 270.045 108L270.045 96Z" fill="#737373"/><path d="M240 82C242.206 82 244 83.794 244 86 244 88.206 242.206 90 240 90 237.794 90 236 88.206 236 86 236 83.794 237.794 82 240 82M240 76C234.477 76 230 80.477 230 86 230 91.523 234.477 96 240 96 245.523 96 250 91.523 250 86 250 80.477 245.523 76 240 76L240 76Z" fill="#737474"/></g></svg>