<svg width="96" height="96" xmlns="http://www.w3.org/2000/svg" xmlns:xlink="http://www.w3.org/1999/xlink" overflow="hidden"><defs><clipPath id="clip0"><rect x="0" y="0" width="96" height="96"/></clipPath></defs><g clip-path="url(#clip0)"><path d="M88.342 7.138 87.659 5.006C87.4909 4.47991 86.9282 4.18968 86.4021 4.35775 86.3846 4.36335 86.3672 4.36944 86.35 4.376L50.8 17.938 50.8 21.382 87.721 8.387C88.2321 8.20758 88.5075 7.65381 88.342 7.138Z"/><path d="M17.053 32.911 32.8 30.243 32.8 24.805 24 28.163C23.4886 28.3612 23.2348 28.9364 23.4329 29.4477 23.4349 29.4528 23.4369 29.4579 23.439 29.463L16.688 30.825C16.1974 30.924 15.8556 31.3706 15.888 31.87L15.896 31.987C15.9309 32.5382 16.4061 32.9567 16.9573 32.9217 16.9893 32.9197 17.0213 32.9161 17.053 32.911Z"/><path d="M88.857 17.37C88.7945 16.8213 88.299 16.4271 87.7503 16.4895 87.7217 16.4928 87.6932 16.4973 87.665 16.503L50.8 23.943 50.8 27.193 88.3 20.839C88.8243 20.7505 89.1876 20.2672 89.127 19.739Z"/><path d="M80.944 54.09C81.018 53.34 80.203 52.89 79.501 52.59 78.5239 52.1954 77.5018 51.9227 76.458 51.778 76.7688 52.2047 77.0555 52.6484 77.317 53.107L77.278 53.123C77.167 53.161 77.033 53.193 76.922 53.231L75.736 53.592C75.459 53.677 75.165 53.758 74.878 53.84 73.0653 50.9508 70.1507 48.9278 66.81 48.24 67.588 49.0906 68.2719 50.0227 68.85 51.02 70.435 51.7955 71.799 52.958 72.816 54.4 71.464 54.736 70.016 55.049 68.499 55.337 66.4964 47.8917 58.8374 43.4795 51.3921 45.4821 49.2267 46.0646 47.2334 47.1601 45.581 48.676 46.1616 49.0349 46.7209 49.4272 47.256 49.851 52.2993 45.5684 59.8596 46.185 64.1422 51.2284 65.2464 52.5287 66.0601 54.0498 66.529 55.69 65.554 55.854 64.558 56.011 63.529 56.155 61.9699 51.4498 56.8917 48.8995 52.1865 50.4586 51.1911 50.7884 50.2612 51.2901 49.439 51.941 49.881 52.44 50.2937 52.9642 50.675 53.511 53.6893 51.1203 58.0708 51.6259 60.4615 54.6402 60.8895 55.1798 61.2351 55.78 61.487 56.421 60.446 56.548 59.374 56.661 58.287 56.767 57.0743 54.947 54.6158 54.4546 52.7957 55.6673 52.5787 55.8119 52.3765 55.9776 52.192 56.162 52.349 56.503 52.492 56.851 52.625 57.203 51.9243 57.243 51.217 57.279 50.503 57.311 49.3055 54.5471 47.3237 52.195 44.803 50.546L44.803 53.01C46.2682 54.2046 47.4615 55.6982 48.303 57.391 46.503 57.445 44.6697 57.4693 42.803 57.464L42.803 57.464 42.803 20.99 40.803 21.753 40.803 57.442C39.4483 57.422 38.115 57.386 36.803 57.334L36.803 23.279 34.803 24.042 34.803 57.242C34.172 57.209 33.549 57.173 32.93 57.134L32.8 57 32.8 56.117C29.5774 52.3675 23.9254 51.9404 20.176 55.163 20.0053 55.3097 19.8402 55.4628 19.681 55.622 18.5197 55.422 17.4013 55.2047 16.326 54.97 20.1205 49.6852 27.4506 48.4171 32.8 52.12L32.8 49.77C26.3328 46.1581 18.1706 48.2236 14.2 54.477 13.377 54.277 12.576 54.063 11.816 53.841L11.87 53.761C12.3558 53.0526 12.8904 52.379 13.47 51.745 12.9465 51.6801 12.4195 51.6467 11.892 51.645 10.4091 51.6437 8.93765 51.9037 7.545 52.413 6.445 52.793 5.779 53.475 5.831 53.978 6.39592 57.2763 7.29178 60.5093 8.505 63.628 9.56934 66.389 10.8455 69.0637 12.322 71.628 16.9596 79.6676 23.2724 86.6154 30.832 92L55.963 92C66.588 84.609 78.025 70.752 80.906 54.333ZM26 55C27.8199 55.002 29.5667 55.7167 30.866 56.991 27.857 56.757 25.003 56.44 22.338 56.048 23.4367 55.3632 24.7054 55.0001 26 55ZM78.462 56.333C75.016 71.411 64.509 83.448 55.329 90L31.466 90C24.3873 84.8199 18.4621 78.2255 14.066 70.635 12.6416 68.1598 11.4099 65.5785 10.382 62.914 9.36591 60.2936 8.57864 57.5902 8.029 54.834 8.02753 54.8293 8.03018 54.8242 8.03493 54.8227 8.03692 54.8221 8.03907 54.8222 8.041 54.823L11.022 55.692C19.234 58.092 31.022 59.462 43.366 59.462 56.066 59.462 68.081 58.021 76.323 55.507L77.576 55.125 78.74 54.75C78.7452 54.7483 78.7509 54.7511 78.7526 54.7564 78.7531 54.7579 78.7532 54.7595 78.753 54.761Z"/><path d="M47.849 36C48.3931 35.9522 48.807 35.491 48.796 34.945L48.796 18.7 46.796 19.462 46.796 35C46.7952 35.5523 47.2423 36.0006 47.7946 36.0014 47.8127 36.0014 47.8309 36.001 47.849 36Z"/></g></svg>